<?xml version="1.0" standalone="no"?>
<!DOCTYPE svg PUBLIC "-//W3C//DTD SVG 20010904//EN"
 "http://www.w3.org/TR/2001/REC-SVG-20010904/DTD/svg10.dtd">
<svg version="1.0" xmlns="http://www.w3.org/2000/svg"
 width="700.000000pt" height="700.000000pt" viewBox="0 0 700.000000 700.000000"
 preserveAspectRatio="xMidYMid meet">
<metadata>
Created by potrace 1.14, written by Peter Selinger 2001-2017
</metadata>
<g transform="translate(0.000000,700.000000) scale(0.100000,-0.100000)"
fill="#000000" stroke="none">
<path d="M831 6985 c-217 -48 -377 -137 -536 -299 -113 -115 -180 -217 -231
-354 -69 -185 -64 35 -64 -2827 0 -2862 -5 -2642 64 -2827 53 -142 118 -240
236 -359 158 -159 320 -248 526 -290 90 -19 171 -19 2731 -17 l2638 3 80 23
c338 99 595 358 687 693 l23 84 0 2670 0 2670 -28 90 c-64 210 -188 398 -347
528 -97 79 -261 164 -385 199 l-80 23 -2625 2 c-2210 1 -2635 -1 -2689 -12z
m5319 -387 c177 -55 323 -175 397 -328 79 -161 73 61 73 -2777 0 -2827 5
-2607 -71 -2763 -82 -165 -252 -297 -434 -335 -60 -13 -418 -15 -2608 -15
-2838 0 -2616 -6 -2777 73 -153 74 -273 220 -328 397 -15 51 -17 237 -20 2575
-2 1680 1 2552 8 2617 5 55 20 125 34 162 82 218 284 379 510 405 39 5 1216 8
2616 7 2364 -1 2549 -3 2600 -18z"/>
<path d="M900 6297 c-85 -24 -164 -97 -192 -175 -11 -30 -13 -521 -13 -2622
l0 -2585 23 -50 c30 -65 75 -112 137 -141 l50 -24 778 0 777 0 0 753 -1 752
-192 199 -193 199 -59 -22 c-133 -50 -252 -47 -373 9 -71 33 -162 114 -199
178 -114 194 -65 455 110 590 186 144 436 130 603 -33 114 -112 161 -286 119
-441 l-18 -66 247 -247 246 -246 0 -813 0 -812 185 0 185 0 0 923 0 922 -290
290 -290 290 0 420 0 420 -69 32 c-178 84 -286 289 -254 480 31 178 164 327
332 373 63 17 180 15 248 -5 276 -80 406 -393 272 -656 -32 -63 -115 -145
-184 -180 l-65 -34 0 -360 0 -360 295 -295 295 -295 0 -982 0 -983 115 0 115
0 0 1408 0 1407 265 265 265 265 0 385 -1 385 -49 23 c-156 73 -261 262 -246
439 27 323 360 515 654 376 80 -37 174 -134 215 -220 30 -65 32 -74 32 -189 0
-118 0 -121 -37 -195 -48 -96 -119 -169 -209 -212 l-68 -32 0 -440 -1 -440
-270 -270 -270 -270 0 -1342 0 -1343 195 0 195 0 0 1256 0 1256 235 243 235
242 -14 35 c-89 212 17 481 228 581 274 130 592 -37 646 -341 43 -240 -138
-487 -382 -521 -76 -11 -177 0 -235 24 l-37 16 -193 -193 -193 -193 0 -1202 0
-1203 748 0 747 0 50 24 c60 29 107 76 134 136 21 45 21 52 21 2640 l0 2595
-24 50 c-29 62 -76 107 -141 136 l-50 22 -2570 4 c-2080 2 -2579 1 -2615 -10z"/>
<path d="M4236 5476 c-49 -18 -113 -79 -137 -131 -23 -49 -25 -142 -4 -192 41
-97 127 -155 229 -155 143 0 246 103 246 247 0 95 -51 179 -133 222 -44 22
-152 27 -201 9z"/>
<path d="M2597 4646 c-130 -36 -205 -178 -167 -317 15 -54 80 -122 141 -149
120 -51 266 5 320 125 26 56 25 156 -2 211 -51 106 -177 162 -292 130z"/>
<path d="M5106 4135 c-59 -21 -108 -65 -139 -126 -25 -48 -28 -62 -24 -122 6
-89 42 -150 115 -193 106 -64 218 -51 303 35 83 82 98 189 41 294 -56 104
-183 152 -296 112z"/>
<path d="M1755 3239 c-127 -47 -197 -179 -160 -304 39 -134 174 -210 306 -171
215 62 243 356 44 458 -46 24 -146 33 -190 17z"/>
</g>
</svg>
